<?xml version="1.0" standalone="no"?>
<!DOCTYPE svg PUBLIC "-//W3C//DTD SVG 20010904//EN"
 "http://www.w3.org/TR/2001/REC-SVG-20010904/DTD/svg10.dtd">
<svg version="1.0" xmlns="http://www.w3.org/2000/svg"
 width="512.000000pt" height="512.000000pt" viewBox="0 0 512.000000 512.000000"
 preserveAspectRatio="xMidYMid meet">
<metadata>
Created by potrace 1.14, written by Peter Selinger 2001-2017
</metadata>
<g transform="translate(0.000000,512.000000) scale(0.100000,-0.100000)"
fill="#000000" stroke="none">
<path d="M361 5109 c-172 -34 -318 -182 -351 -358 -14 -74 -14 -4308 0 -4382
34 -180 179 -325 359 -359 74 -14 4308 -14 4382 0 180 34 325 179 359 359 14
74 14 4308 0 4382 -34 180 -179 325 -359 359 -67 12 -4325 12 -4390 -1z m1784
-1221 c279 -86 478 -289 546 -558 18 -71 18 -269 0 -340 -68 -269 -268 -473
-546 -558 -41 -13 -132 -16 -492 -19 l-443 -4 0 -540 c0 -521 -1 -541 -20
-579 -23 -45 -80 -80 -130 -80 -50 0 -107 35 -130 80 -20 39 -20 56 -20 1270
0 1213 0 1231 20 1270 12 24 35 48 58 60 36 19 53 20 572 17 447 -3 543 -6
585 -19z m1985 2 c45 -23 80 -80 80 -130 0 -50 -35 -107 -80 -130 -35 -18 -59
-20 -220 -20 -210 0 -244 -10 -280 -80 -18 -36 -20 -58 -20 -280 l0 -240 240
0 c222 0 244 -2 280 -20 45 -23 80 -80 80 -130 0 -50 -35 -107 -80 -130 -36
-18 -58 -20 -280 -20 l-240 0 0 -690 c0 -673 -1 -692 -20 -730 -23 -45 -80
-80 -130 -80 -50 0 -107 35 -130 80 -19 38 -20 57 -20 730 l0 690 -90 0 c-71
0 -99 4 -130 20 -45 23 -80 80 -80 130 0 50 35 107 80 130 31 16 59 20 130 20
l90 0 0 239 c0 131 5 262 10 292 26 137 122 263 243 320 90 41 126 47 340 48
170 1 192 -1 227 -19z"/>
<path d="M1210 3160 l0 -450 389 0 c222 0 411 4 442 10 186 35 330 184 361
374 38 231 -126 461 -361 506 -31 6 -220 10 -442 10 l-389 0 0 -450z"/>
</g>
</svg>
